<svg id="Calque_1" data-name="Calque 1" xmlns="http://www.w3.org/2000/svg" viewBox="0 0 169.29 36.18"><defs><style>.cls-1{fill:#00917e;}</style></defs><path d="M35.67,34.3a7.07,7.07,0,0,1-4.05-1.2,8.45,8.45,0,0,1-2.82-3.32A10.56,10.56,0,0,1,27.75,25a10.67,10.67,0,0,1,1.05-4.84,8.37,8.37,0,0,1,2.87-3.29,7.43,7.43,0,0,1,4.16-1.21,7.12,7.12,0,0,1,2.36.38,6.16,6.16,0,0,1,1.87,1,6.91,6.91,0,0,1,1.39,1.52,6.5,6.5,0,0,1,.84,1.84l-1.11-.13V16h5.38V34H41.08V29.67l1.21,0a5.79,5.79,0,0,1-.88,1.8,6.5,6.5,0,0,1-1.48,1.48,7.45,7.45,0,0,1-2,1A7,7,0,0,1,35.67,34.3Zm1.48-4.57a4,4,0,0,0,2.17-.57,3.81,3.81,0,0,0,1.42-1.64A5.78,5.78,0,0,0,41.25,25a5.78,5.78,0,0,0-.51-2.52,4,4,0,0,0-1.42-1.66,3.94,3.94,0,0,0-2.17-.59,3.78,3.78,0,0,0-2.11.59,3.94,3.94,0,0,0-1.4,1.66A5.78,5.78,0,0,0,33.13,25a5.78,5.78,0,0,0,.51,2.52A3.77,3.77,0,0,0,35,29.16,3.85,3.85,0,0,0,37.15,29.73Z" transform="translate(-15.05 -4.91)"/><path d="M51.32,34V16h5.15l.16,3.65-1.08.41a5.52,5.52,0,0,1,1.34-2.22,7.53,7.53,0,0,1,2.31-1.61,7,7,0,0,1,2.85-.61,6.55,6.55,0,0,1,3.41.83A5.23,5.23,0,0,1,67.56,19a10.17,10.17,0,0,1,.71,4V34H62.82V23.41a4.61,4.61,0,0,0-.3-1.79,2.13,2.13,0,0,0-.93-1.07,3,3,0,0,0-1.54-.32,3.81,3.81,0,0,0-1.32.22,3.12,3.12,0,0,0-1,.64,3.44,3.44,0,0,0-.69,1,2.71,2.71,0,0,0-.25,1.18V34H51.32Z" transform="translate(-15.05 -4.91)"/><path d="M79.6,34.37a7.29,7.29,0,0,1-4.14-1.2,8.3,8.3,0,0,1-2.86-3.32,10.68,10.68,0,0,1-1-4.82,10.71,10.71,0,0,1,1-4.82,8.34,8.34,0,0,1,2.87-3.33,7.42,7.42,0,0,1,4.2-1.22A7.25,7.25,0,0,1,82,16a7.86,7.86,0,0,1,2,1,6.13,6.13,0,0,1,1.49,1.47,3.69,3.69,0,0,1,.67,1.71l-1.28.3V4.91l5.44,2.48V34h-5L85,29.9l1.08.17a3.53,3.53,0,0,1-.66,1.63A5.86,5.86,0,0,1,84,33.07,7.67,7.67,0,0,1,82,34,7.79,7.79,0,0,1,79.6,34.37ZM81,29.87a3.79,3.79,0,0,0,2.17-.61,3.89,3.89,0,0,0,1.4-1.69A6.06,6.06,0,0,0,85,25a6.14,6.14,0,0,0-.49-2.57A3.73,3.73,0,0,0,81,20.16a3.74,3.74,0,0,0-2.14.61,4.13,4.13,0,0,0-1.41,1.69,6.14,6.14,0,0,0-.5,2.57,6.06,6.06,0,0,0,.5,2.54,4.13,4.13,0,0,0,1.41,1.69A3.67,3.67,0,0,0,81,29.87Z" transform="translate(-15.05 -4.91)"/><path d="M93.3,41.1l-2.07-4.2a6,6,0,0,0,2.44-.4,2.42,2.42,0,0,0,1.25-1.34,7,7,0,0,0,.37-2.55V16h5.41V33.89A8.64,8.64,0,0,1,99.86,38a5.35,5.35,0,0,1-2.51,2.37A9.44,9.44,0,0,1,93.3,41.1Z" transform="translate(-15.05 -4.91)"/><path d="M105.91,34V16h5.41V34Z" transform="translate(-15.05 -4.91)"/><path class="cls-1" d="M118.32,34.37a2.88,2.88,0,0,1-2.15-.78,3.09,3.09,0,0,1-.76-2.23,3,3,0,0,1,.81-2.2,2.81,2.81,0,0,1,2.1-.85,2.9,2.9,0,0,1,2.17.8,3.12,3.12,0,0,1,.77,2.25,3,3,0,0,1-.81,2.16A2.79,2.79,0,0,1,118.32,34.37Z" transform="translate(-15.05 -4.91)"/><path class="cls-1" d="M131.88,34.37a7.34,7.34,0,0,1-4.14-1.2,8.3,8.3,0,0,1-2.86-3.32,10.68,10.68,0,0,1-1-4.82,10.71,10.71,0,0,1,1-4.82,8.37,8.37,0,0,1,2.88-3.33A7.37,7.37,0,0,1,132,15.66a7.25,7.25,0,0,1,2.33.38,7.56,7.56,0,0,1,2,1,6,6,0,0,1,1.49,1.47,3.83,3.83,0,0,1,.68,1.71l-1.29.3V5.2l5.45,2.19V34h-5l-.31-4.1,1.09.17a3.53,3.53,0,0,1-.66,1.63,5.9,5.9,0,0,1-1.44,1.37,7.75,7.75,0,0,1-2,.94A7.86,7.86,0,0,1,131.88,34.37Zm1.39-4.5a3.75,3.75,0,0,0,2.16-.61,4,4,0,0,0,1.41-1.69,6.22,6.22,0,0,0,.49-2.54,6.3,6.3,0,0,0-.49-2.57,4,4,0,0,0-1.41-1.69,4.11,4.11,0,0,0-4.31,0,4.11,4.11,0,0,0-1.4,1.69,6,6,0,0,0-.51,2.57,5.9,5.9,0,0,0,.51,2.54,4.11,4.11,0,0,0,1.4,1.69A3.72,3.72,0,0,0,133.27,29.87Z" transform="translate(-15.05 -4.91)"/><path class="cls-1" d="M155.76,34.33a10.62,10.62,0,0,1-5.17-1.2,8.64,8.64,0,0,1-3.42-3.28A9.23,9.23,0,0,1,146,25.1a10.34,10.34,0,0,1,.68-3.79,9.06,9.06,0,0,1,1.89-3,8.37,8.37,0,0,1,2.89-2,9.56,9.56,0,0,1,3.67-.7,8.7,8.7,0,0,1,3.47.68,7.91,7.91,0,0,1,2.72,1.9A8.18,8.18,0,0,1,163,21.11a9.27,9.27,0,0,1,.54,3.62l0,1.45H149.23l-.78-3h10.69l-.57.64v-.67A3,3,0,0,0,158,21.6a3.09,3.09,0,0,0-1.2-1,3.69,3.69,0,0,0-1.69-.37,4.51,4.51,0,0,0-2.25.52,3.33,3.33,0,0,0-1.4,1.52,5.67,5.67,0,0,0-.47,2.45,5.09,5.09,0,0,0,.62,2.59A4.33,4.33,0,0,0,153.48,29a6.19,6.19,0,0,0,2.86.61,5.67,5.67,0,0,0,2-.34,7.59,7.59,0,0,0,2-1.15l2.53,3.59a10.29,10.29,0,0,1-2.23,1.48,11.7,11.7,0,0,1-2.42.87A10.84,10.84,0,0,1,155.76,34.33Z" transform="translate(-15.05 -4.91)"/><path class="cls-1" d="M172.2,34l-7.51-18h6l4.46,13.42-1.32.14L178.42,16h5.92l-7.88,18Z" transform="translate(-15.05 -4.91)"/><path d="M98.1,12.49a3.63,3.63,0,0,1-2.39-.73,2.59,2.59,0,0,1-.86-2.08,2.55,2.55,0,0,1,.88-2,3.43,3.43,0,0,1,2.37-.77,3.52,3.52,0,0,1,2.36.72,2.55,2.55,0,0,1,.85,2.05,2.63,2.63,0,0,1-.86,2A3.38,3.38,0,0,1,98.1,12.49Z" transform="translate(-15.05 -4.91)"/><path class="cls-1" d="M19.49,23.16a4.85,4.85,0,0,1-3.26-1,3.49,3.49,0,0,1-1.18-2.84,3.49,3.49,0,0,1,1.2-2.73,4.7,4.7,0,0,1,3.24-1.06,4.83,4.83,0,0,1,3.24,1,3.51,3.51,0,0,1,1.15,2.8,3.53,3.53,0,0,1-1.18,2.77A4.59,4.59,0,0,1,19.49,23.16Z" transform="translate(-15.05 -4.91)"/><path class="cls-1" d="M19.49,34.3a4.9,4.9,0,0,1-3.26-1,3.51,3.51,0,0,1-1.18-2.85,3.49,3.49,0,0,1,1.2-2.73,4.7,4.7,0,0,1,3.24-1.06,4.83,4.83,0,0,1,3.24,1,3.51,3.51,0,0,1,1.15,2.8,3.56,3.56,0,0,1-1.18,2.78A4.59,4.59,0,0,1,19.49,34.3Z" transform="translate(-15.05 -4.91)"/><path d="M108.62,12.49a3.63,3.63,0,0,1-2.39-.73,2.59,2.59,0,0,1-.86-2.08,2.55,2.55,0,0,1,.88-2,3.42,3.42,0,0,1,2.37-.77,3.52,3.52,0,0,1,2.36.72,2.55,2.55,0,0,1,.85,2.05,2.63,2.63,0,0,1-.86,2A3.38,3.38,0,0,1,108.62,12.49Z" transform="translate(-15.05 -4.91)"/></svg>